HIERARCHY
ROOT joint_Root
{
	OFFSET 0.0 0.0 0.0
	CHANNELS 6 Xposition Yposition Zposition Zrotation Xrotation Yrotation 
	JOINT Hips
	{
		OFFSET 4.5925 91.4895 -427.239
		CHANNELS 6 Xposition Yposition Zposition Zrotation Xrotation Yrotation 
		JOINT Spine
		{
			OFFSET 15.7357 0.0 0.0
			CHANNELS 6 Xposition Yposition Zposition Zrotation Xrotation Yrotation 
			JOINT Chest
			{
				OFFSET 8.98455 -0.406207 0.0
				CHANNELS 6 Xposition Yposition Zposition Zrotation Xrotation Yrotation 
				JOINT Neck
				{
					OFFSET 16.3773 0.0 0.0
					CHANNELS 6 Xposition Yposition Zposition Zrotation Xrotation Yrotation 
					JOINT Head
					{
						OFFSET 6.45672 0.0 0.0
						CHANNELS 6 Xposition Yposition Zposition Zrotation Xrotation Yrotation 
						End Site
						{
							OFFSET 0.0 0.0 0.0
						}
					}
				}
				JOINT Shoulder_L
				{
					OFFSET 12.9942 -0.242716 4.98039
					CHANNELS 6 Xposition Yposition Zposition Zrotation Xrotation Yrotation 
					JOINT UpperArm_L
					{
						OFFSET 5.34809 0.0 0.0
						CHANNELS 6 Xposition Yposition Zposition Zrotation Xrotation Yrotation 
						JOINT LowerArm_L
						{
							OFFSET 24.3286 1.87007e-05 0.0
							CHANNELS 6 Xposition Yposition Zposition Zrotation Xrotation Yrotation 
							JOINT Hand_L
							{
								OFFSET 22.2916 0.0 0.0
								CHANNELS 6 Xposition Yposition Zposition Zrotation Xrotation Yrotation 
								End Site
								{
									OFFSET 0.0 0.0 0.0
								}
							}
						}
					}
				}
				JOINT Shoulder_R
				{
					OFFSET 12.9945 -0.242716 -4.98039
					CHANNELS 6 Xposition Yposition Zposition Zrotation Xrotation Yrotation 
					JOINT UpperArm_R
					{
						OFFSET -5.34813 0.0 0.0
						CHANNELS 6 Xposition Yposition Zposition Zrotation Xrotation Yrotation 
						JOINT LowerArm_R
						{
							OFFSET -24.3289 0.000322201 0.0
							CHANNELS 6 Xposition Yposition Zposition Zrotation Xrotation Yrotation 
							JOINT Hand_R
							{
								OFFSET -22.2915 -0.000108084 0.0
								CHANNELS 6 Xposition Yposition Zposition Zrotation Xrotation Yrotation 
								End Site
								{
									OFFSET 0.0 0.0 0.0
								}
							}
						}
					}
				}
			}
		}
		JOINT UpperLeg_L
		{
			OFFSET -2.19248 -6.46944 0.0
			CHANNELS 6 Xposition Yposition Zposition Zrotation Xrotation Yrotation 
			JOINT LowerLeg_L
			{
				OFFSET 39.0811 0.0 -1.23785e-05
				CHANNELS 6 Xposition Yposition Zposition Zrotation Xrotation Yrotation 
				JOINT Foot_L
				{
					OFFSET 40.9854 0.0 -1.26872e-05
					CHANNELS 6 Xposition Yposition Zposition Zrotation Xrotation Yrotation 
					JOINT Toes_L
					{
						OFFSET 11.7543 0.0 0.0
						CHANNELS 6 Xposition Yposition Zposition Zrotation Xrotation Yrotation 
						End Site
						{
							OFFSET 0.0 0.0 0.0
						}
					}
				}
			}
		}
		JOINT UpperLeg_R
		{
			OFFSET -2.19251 6.46944 0.0
			CHANNELS 6 Xposition Yposition Zposition Zrotation Xrotation Yrotation 
			JOINT LowerLeg_R
			{
				OFFSET -39.0811 -0.00228153 -0.0401928
				CHANNELS 6 Xposition Yposition Zposition Zrotation Xrotation Yrotation 
				JOINT Foot_R
				{
					OFFSET -40.9854 0.0 0.0
					CHANNELS 6 Xposition Yposition Zposition Zrotation Xrotation Yrotation 
					JOINT Toes_R
					{
						OFFSET -11.7543 0.0 0.0
						CHANNELS 6 Xposition Yposition Zposition Zrotation Xrotation Yrotation 
						End Site
						{
							OFFSET 0.0 0.0 0.0
						}
					}
				}
			}
		}
	}
}
MOTION
Frames:	5
Frame Time:	0.0333333
0.000000 0.000000 0.000000 0.000000 0.000000 -0.000000 -1.379520 86.927400 511.300000 -87.958100 -5.524460 176.532000 15.735700 0.000005 -0.000001 72.397700 82.441900 -71.980700 8.984550 -0.406207 -0.000000 6.675400 -4.560810 1.099510 16.377300 -0.000001 -0.000001 -5.958750 -5.177240 1.144410 6.456720 -0.000001 -0.000000 -6.995360 -3.321340 3.914560 12.994200 -0.242716 4.980390 -90.088700 0.451185 -78.872300 5.348090 -0.000007 -0.000001 -62.580100 12.891000 -36.093800 24.328600 0.000019 0.000005 -2.313540 0.226259 -95.573600 22.291600 -0.000001 0.000005 22.652700 5.505920 -6.773910 12.994500 -0.242716 -4.980390 88.833100 6.952910 -80.448800 -5.348130 -0.000001 -0.000004 -73.748500 31.879200 17.052200 -24.328900 0.000322 -0.000009 -24.808100 -14.568000 -61.446600 -22.291500 -0.000108 -0.000004 23.815100 5.618140 -12.489200 -2.192480 -6.469440 -0.000000 -177.555000 -6.702220 -9.600500 39.081100 -0.000007 -0.000012 -0.060637 0.071282 40.387500 40.985400 -0.000006 -0.000013 1.729660 -2.304270 -84.766200 11.754300 -0.000000 0.000003 -1.214980 -1.560880 -15.618100 -2.192510 6.469440 -0.000001 -175.827000 15.951600 140.178000 -39.081100 -0.002282 -0.040193 0.083145 -0.034393 66.735300 -40.985400 0.000008 0.000006 4.572480 -0.466371 -65.324300 -11.754300 -0.000006 -0.000006 -0.016027 -0.144189 -22.457600
0.000000 0.000000 0.000000 0.000000 0.000000 -0.000000 -1.508950 88.008900 507.457000 -87.218300 -4.463910 175.847000 15.735700 0.000005 -0.000001 70.263600 82.823000 -69.443800 8.984550 -0.406207 -0.000000 5.796160 -4.849130 1.884210 16.377300 -0.000001 -0.000001 -5.607900 -4.762280 1.175300 6.456720 -0.000001 -0.000000 -6.392970 -2.660440 3.495830 12.994200 -0.242716 4.980390 -89.983000 -0.082135 -78.319700 5.348090 -0.000007 -0.000001 -62.723700 13.755300 -35.065800 24.328600 0.000019 0.000005 -4.362870 0.627990 -98.168900 22.291600 -0.000001 0.000005 21.933400 5.535470 -8.050730 12.994500 -0.242716 -4.980390 89.039200 5.819840 -80.608600 -5.348130 -0.000001 -0.000004 -74.611200 31.027800 18.461300 -24.328900 0.000322 -0.000009 -24.213500 -12.965800 -63.483000 -22.291500 -0.000108 -0.000004 22.368100 5.615190 -12.295700 -2.192480 -6.469440 -0.000000 -176.694000 -6.286260 -6.442340 39.081100 -0.000007 -0.000012 0.001179 -0.001558 37.086200 40.985400 -0.000006 -0.000013 1.065850 -2.534050 -79.753200 11.754300 -0.000000 0.000003 -1.171330 -1.414390 -18.409600 -2.192510 6.469440 -0.000001 -172.847000 17.986400 141.886000 -39.081100 -0.002282 -0.040193 0.036154 -0.023208 54.822500 -40.985400 0.000008 0.000006 1.587320 3.556550 -67.732100 -11.754300 -0.000006 -0.000006 -0.016519 -0.147180 -22.580600
0.000000 0.000000 0.000000 0.000000 0.000000 -0.000000 -1.571240 88.862200 503.249000 -87.656500 -3.547480 175.459000 15.735700 0.000005 -0.000001 67.804900 83.103200 -66.993900 8.984550 -0.406207 -0.000000 5.059730 -5.219270 1.851610 16.377300 -0.000001 -0.000001 -5.075800 -4.403650 1.358340 6.456720 -0.000001 -0.000000 -5.880810 -2.098040 3.318030 12.994200 -0.242716 4.980390 -89.955600 -0.207745 -77.923000 5.348090 -0.000007 -0.000001 -63.472000 15.717000 -31.036800 24.328600 0.000019 0.000005 -4.586470 0.664018 -98.222600 22.291600 -0.000001 0.000005 22.154900 5.527450 -7.680000 12.994500 -0.242716 -4.980390 89.011700 5.923220 -80.510500 -5.348130 -0.000001 -0.000004 -72.994300 31.116900 16.236800 -24.328900 0.000322 -0.000009 -23.859100 -11.349500 -66.013100 -22.291500 -0.000108 -0.000004 22.293000 5.613490 -12.184400 -2.192480 -6.469440 -0.000000 -176.518000 -6.453440 -5.093330 39.081100 -0.000007 -0.000012 0.003973 -0.005113 37.838200 40.985400 -0.000006 -0.000013 -0.231313 -1.239480 -73.294800 11.754300 -0.000000 0.000003 -0.031927 -0.226176 -25.847600 -2.192510 6.469440 -0.000001 -170.567000 21.370000 144.885000 -39.081100 -0.002282 -0.040193 0.009901 -0.006965 43.599600 -40.985400 0.000008 0.000006 0.603377 4.769730 -69.543000 -11.754300 -0.000006 -0.000006 -0.017755 -0.154521 -22.882300
0.000000 0.000000 0.000000 0.000000 0.000000 -0.000000 -1.553240 89.327500 498.787000 -88.875000 -2.796020 175.635000 15.735700 0.000005 -0.000001 66.534500 83.291000 -66.034300 8.984550 -0.406207 -0.000000 4.582080 -5.347530 1.214000 16.377300 -0.000001 -0.000001 -4.308850 -4.168930 1.425240 6.456720 -0.000001 -0.000000 -5.320510 -1.944300 3.270750 12.994200 -0.242716 4.980390 -90.049800 0.224506 -77.508800 5.348090 -0.000007 -0.000001 -63.428500 19.089100 -25.818900 24.328600 0.000019 0.000005 -3.739200 0.291555 -94.439700 22.291600 -0.000001 0.000005 22.608500 5.496000 -6.377450 12.994500 -0.242716 -4.980390 88.806800 6.945300 -80.226900 -5.348130 -0.000001 -0.000004 -69.814800 30.689100 11.178700 -24.328900 0.000322 -0.000009 -23.278700 -9.292270 -69.427800 -22.291500 -0.000108 -0.000004 22.901500 5.617840 -12.471100 -2.192480 -6.469440 -0.000000 -176.679000 -7.317320 -5.730660 39.081100 -0.000007 -0.000012 0.018197 -0.019772 42.620200 40.985400 -0.000006 -0.000013 -0.924559 1.431020 -64.549700 11.754300 -0.000000 0.000003 -0.107330 -0.462400 -35.913400 -2.192510 6.469440 -0.000001 -169.597000 24.438100 147.903000 -39.081100 -0.002282 -0.040193 0.074610 -0.093524 37.330600 -40.985400 0.000008 0.000006 4.128810 4.066610 -69.841300 -11.754300 -0.000006 -0.000006 -0.018710 -0.160034 -23.109100
0.000000 0.000000 0.000000 0.000000 0.000000 -0.000000 -1.462880 89.070400 494.171000 -89.882700 -2.284650 176.937000 15.735700 0.000005 -0.000001 69.283600 83.144800 -69.009400 8.984550 -0.406207 -0.000000 5.084100 -4.846410 0.763348 16.377300 -0.000001 -0.000001 -3.591340 -4.089310 1.328400 6.456720 -0.000001 -0.000000 -5.429850 -2.094480 2.871290 12.994200 -0.242716 4.980390 -90.193400 0.829298 -76.875900 5.348090 -0.000007 -0.000001 -62.629500 23.623400 -21.413900 24.328600 0.000019 0.000005 -2.639670 -0.132734 -87.091200 22.291600 -0.000001 0.000005 21.726600 5.465100 -5.180920 12.994500 -0.242716 -4.980390 88.655200 7.697250 -80.059000 -5.348130 -0.000001 -0.000004 -66.695900 28.614300 4.266540 -24.328900 0.000322 -0.000009 -23.102300 -6.783650 -74.523400 -22.291500 -0.000108 -0.000004 23.833200 5.619910 -12.615200 -2.192480 -6.469440 -0.000000 -176.392000 -7.310820 -8.404990 39.081100 -0.000007 -0.000012 0.056451 -0.044224 51.922400 40.985400 -0.000006 -0.000013 0.123540 4.357800 -54.835200 11.754300 -0.000000 0.000003 -0.109064 -0.466521 -36.094700 -2.192510 6.469440 -0.000001 -172.089000 23.157000 151.545000 -39.081100 -0.002282 -0.040193 -0.082667 0.109544 38.118500 -40.985400 0.000008 0.000006 7.421100 1.288090 -65.906000 -11.754300 -0.000006 -0.000006 -0.014887 -0.137107 -22.166900
